<svg id="レイヤー_1" data-name="レイヤー 1" xmlns="http://www.w3.org/2000/svg" viewBox="0 0 25 25"><defs><style>.cls-1{fill:#333}.cls-2{fill:#fff}</style></defs><title>icon_fb</title><path class="cls-1" d="M22.73 1H2.27A1.27 1.27 0 0 0 1 2.27v20.46A1.27 1.27 0 0 0 2.27 24h11v-8.89h-3v-3.49h3V9.06c0-3 1.81-4.58 4.46-4.58a26 26 0 0 1 2.68.13v3.1H18.6c-1.44 0-1.72.69-1.72 1.7v2.21h3.45l-.45 3.49h-3V24h5.85A1.27 1.27 0 0 0 24 22.73V2.27A1.27 1.27 0 0 0 22.73 1z"/><path id="f" class="cls-2" d="M16.88 24v-8.89h3l.45-3.49h-3.45V9.41c0-1 .28-1.69 1.72-1.69h1.83V4.61a26 26 0 0 0-2.68-.13c-2.65 0-4.46 1.61-4.46 4.58v2.56h-3v3.49h3V24z"/></svg>