<svg id="レイヤー_1" data-name="レイヤー 1" xmlns="http://www.w3.org/2000/svg" viewBox="0 0 25 25"><defs><style>.cls-1{fill:#333}</style></defs><title>icon_insta</title><path class="cls-1" d="M12.5 3.07c3.07 0 3.43 0 4.65.07a6.18 6.18 0 0 1 2.13.4 3.33 3.33 0 0 1 1.32.86 3.33 3.33 0 0 1 .86 1.32 6.18 6.18 0 0 1 .4 2.13c.06 1.22.07 1.58.07 4.65s0 3.43-.07 4.65a6.18 6.18 0 0 1-.4 2.13 3.82 3.82 0 0 1-2.18 2.18 6.18 6.18 0 0 1-2.13.4c-1.22.06-1.58.07-4.65.07s-3.43 0-4.65-.07a6.18 6.18 0 0 1-2.13-.4 3.33 3.33 0 0 1-1.32-.86 3.33 3.33 0 0 1-.86-1.32 6.18 6.18 0 0 1-.4-2.13c-.06-1.22-.07-1.58-.07-4.65s0-3.43.07-4.65a6.18 6.18 0 0 1 .4-2.13A3.33 3.33 0 0 1 4.4 4.4a3.33 3.33 0 0 1 1.32-.86 6.18 6.18 0 0 1 2.13-.4c1.22-.06 1.58-.07 4.65-.07m0-2.07C9.38 1 9 1 7.76 1.07A8.62 8.62 0 0 0 5 1.6 5.91 5.91 0 0 0 1.6 5a8.62 8.62 0 0 0-.53 2.79C1 9 1 9.38 1 12.5s0 3.51.07 4.74A8.62 8.62 0 0 0 1.6 20 5.91 5.91 0 0 0 5 23.4a8.62 8.62 0 0 0 2.79.53C9 24 9.38 24 12.5 24s3.51 0 4.74-.07A8.62 8.62 0 0 0 20 23.4a5.91 5.91 0 0 0 3.4-3.4 8.62 8.62 0 0 0 .53-2.79C24 16 24 15.62 24 12.5s0-3.5-.07-4.74A8.62 8.62 0 0 0 23.4 5 5.91 5.91 0 0 0 20 1.6a8.62 8.62 0 0 0-2.79-.53C16 1 15.62 1 12.5 1z"/><path class="cls-1" d="M12.5 6.59a5.91 5.91 0 1 0 5.91 5.91 5.92 5.92 0 0 0-5.91-5.91zm0 9.74a3.83 3.83 0 1 1 3.83-3.83 3.82 3.82 0 0 1-3.83 3.83z"/><circle class="cls-1" cx="18.64" cy="6.36" r="1.38"/></svg>