<svg id="レイヤー_1" data-name="レイヤー 1" xmlns="http://www.w3.org/2000/svg" viewBox="0 0 25 25"><defs><style>.cls-1{fill:#333}</style></defs><title>icon_tw</title><path class="cls-1" d="M7.86 22.66a14.5 14.5 0 0 0 14.6-14.6V7.4A10.61 10.61 0 0 0 25 4.74a10.11 10.11 0 0 1-2.95.81 5.14 5.14 0 0 0 2.26-2.84A10.35 10.35 0 0 1 21.05 4a5.13 5.13 0 0 0-8.74 4.68 14.59 14.59 0 0 1-10.57-5.4 5.13 5.13 0 0 0 1.59 6.85A5.13 5.13 0 0 1 1 9.48v.07a5.14 5.14 0 0 0 4.12 5 5.2 5.2 0 0 1-2.32.08 5.14 5.14 0 0 0 4.79 3.57 10.36 10.36 0 0 1-6.37 2.2A10 10 0 0 1 0 20.35a14.42 14.42 0 0 0 7.86 2.3"/></svg>